# Blender 4.0.1
# www.blender.org
mtllib blueboxobj.mtl
o Plane.006
v -1.089205 -1.462913 0.147366
v 0.910795 -1.462913 0.147366
v -1.089205 -1.462913 -0.152634
v 0.910795 -1.462913 -0.152634
v -1.195569 0.198041 0.147366
v 1.017159 0.198041 0.147366
v 1.017159 0.198041 -0.152634
v -1.195569 0.198041 -0.152634
v 1.019822 -0.271683 0.147366
v 1.019822 -0.271683 -0.152634
v -1.202801 -0.271683 -0.152634
v -1.202801 -0.271683 0.147366
v -0.239205 0.198041 0.147366
v -0.239205 0.198041 -0.152634
v 0.060795 0.198041 0.147366
v 0.060795 0.198041 -0.152634
v 0.060795 -1.462913 0.997366
v 0.060795 -1.462913 -1.002634
v -0.239205 -1.462913 0.997366
v -0.239205 -1.462913 -1.002634
v 0.060795 0.198041 1.103730
v 0.060795 0.198041 -1.108998
v -0.239205 0.198041 -1.108998
v -0.239205 0.198041 1.103730
v 0.060795 -0.271683 -1.111661
v -0.239205 -0.271683 -1.111661
v -0.239205 -0.271683 1.110962
v 0.060795 -0.271683 1.110962
v 0.467185 0.200931 -0.739738
v 0.679318 0.200931 -0.527606
v 0.497456 0.200931 -0.557877
v 0.679317 0.200931 0.512451
v 0.159289 0.200931 -0.007578
v 0.467185 0.200931 0.724583
v 0.497456 0.200931 0.542721
v 0.467185 0.195931 -0.739738
v 0.679318 0.195931 -0.527606
v 0.497456 0.195931 -0.557877
v 0.679317 0.195931 0.512451
v 0.159289 0.195931 -0.007578
v 0.467185 0.195931 0.724583
v 0.497456 0.195931 0.542721
v 0.060795 0.200931 -0.121216
v 0.060795 0.200931 0.090916
v 0.060795 0.200931 -0.333348
v 0.060795 0.200931 0.106060
v 0.060795 0.200931 0.318192
v 0.060795 0.200931 0.090916
v 0.060795 0.195931 0.090916
v 0.060795 0.195931 -0.333348
v 0.060795 0.195931 0.318192
v 0.060795 0.195931 0.090916
v 0.060795 0.197920 0.019630
v 0.060795 0.307390 0.019630
v 0.060795 0.444889 0.095274
v 0.060795 0.533676 0.236062
v 0.060795 0.574580 0.409181
v 0.060795 0.502253 0.607402
v 0.060795 0.371957 0.669979
v 0.060795 0.251200 0.564490
v 0.060795 0.202545 0.345589
v -0.239205 0.251200 0.564490
v -0.239205 0.371957 0.669979
v -0.239205 0.574580 0.409181
v -0.239205 0.197920 0.019630
v -0.239205 0.444889 0.095274
v -0.239205 0.202545 0.345589
v -0.239205 0.307390 0.019630
v -0.239205 0.533676 0.236062
v -0.239205 0.502253 0.607402
v 0.060795 0.197920 -0.024898
v 0.060795 0.307390 -0.024898
v 0.060795 0.444889 -0.100542
v 0.060795 0.533676 -0.241330
v 0.060795 0.574580 -0.414449
v 0.060795 0.502253 -0.612670
v 0.060795 0.371957 -0.675247
v 0.060795 0.251200 -0.569758
v 0.060795 0.202545 -0.350857
v -0.239205 0.371957 -0.675247
v -0.239205 0.502253 -0.612670
v -0.239205 0.574580 -0.414449
v -0.239205 0.533676 -0.241330
v -0.239205 0.197920 -0.024898
v -0.239205 0.444889 -0.100542
v -0.239205 0.202545 -0.350857
v -0.239205 0.307390 -0.024898
v -0.239205 0.251200 -0.569758
v 0.910795 0.105612 -1.002634
v 0.910795 -1.462930 -1.002634
v 0.910795 0.105612 0.997366
v 0.910795 -1.462930 0.997366
v -1.089205 0.105612 -1.002634
v -1.089205 -1.462930 -1.002634
v -1.089205 0.105612 0.997366
v -1.089205 -1.462930 0.997366
v 1.017121 0.197540 -1.108960
v 1.017121 -0.271700 -1.108960
v 1.017121 0.197540 1.103693
v 1.017121 -0.271700 1.103693
v -1.195531 0.197540 -1.108960
v -1.195531 -0.271700 -1.108960
v -1.195531 0.197540 1.103693
v -1.195531 -0.271700 1.103693
v -1.089205 -0.271700 -1.002634
v 0.910795 -0.271700 -1.002634
v 0.910795 -0.271700 0.997366
v -1.089205 -0.271700 0.997366
vn 0.9958 -0.0911 -0.0000
vn -0.9999 0.0154 -0.0000
vn -0.0000 1.0000 -0.0000
vn 1.0000 0.0057 -0.0000
vn -0.9955 -0.0949 -0.0000
vn -0.0000 -0.0911 -0.9958
vn -0.0000 0.0154 0.9999
vn -0.0000 0.0057 -1.0000
vn -0.0000 -0.0949 0.9955
vn -0.7071 -0.0000 -0.7071
vn 0.7071 -0.0000 0.7071
vn 0.1642 -0.0000 -0.9864
vn 0.9864 -0.0000 -0.1642
vn 0.7071 -0.0000 -0.7071
vn -0.7071 -0.0000 0.7071
vn 0.9864 -0.0000 0.1642
vn 0.1642 -0.0000 0.9864
vn -0.0000 -0.8458 0.5334
vn -0.0000 -0.4329 -0.9014
vn -0.0000 -0.0000 1.0000
vn -0.0000 0.9762 0.2170
vn -0.0000 -0.9732 -0.2299
vn -0.0000 -0.4820 -0.8762
vn -0.0000 -0.9394 0.3428
vn -0.0000 -0.4820 0.8762
vn -0.0000 -0.0000 -1.0000
vn -0.0000 -0.9394 -0.3428
vn -0.0000 0.6579 -0.7531
vn -0.0000 -0.4329 0.9014
vn -0.0000 -0.9732 0.2299
vn -0.0000 0.6579 0.7531
vn -0.0000 0.9762 -0.2170
vn -0.0000 -0.8458 -0.5334
vn -1.0000 -0.0000 -0.0000
vn -0.0000 -1.0000 -0.0000
vn 1.0000 -0.0000 -0.0000
vt 1.000000 0.000000
vt 0.833333 1.000000
vt 0.833333 0.000000
vt 0.333333 0.000000
vt 0.166667 1.000000
vt 0.166667 0.000000
vt 0.666667 0.000000
vt 0.583333 1.000000
vt 0.583333 0.000000
vt 0.666667 1.000000
vt 0.000000 1.000000
vt 0.000000 0.000000
vt 0.500000 0.000000
vt 0.333333 1.000000
vt 0.555091 0.500000
vt 0.614930 1.000000
vt 0.333333 0.500000
vt 0.518352 0.000000
vt 0.593826 1.000000
vt 0.660985 0.500000
vt 0.666667 0.464306
vt 0.518352 0.000000
vt 0.593826 1.000000
vt 0.575656 1.000000
vt 0.554823 -0.000000
vt 0.575656 0.000000
vt 0.638156 1.000000
vt 0.617323 0.000000
vt 0.638156 -0.000000
vt 0.533989 0.000000
vt 0.513156 1.000000
vt 0.513156 -0.000000
vt 0.679823 1.000000
vt 0.658989 0.000000
vt 0.658989 1.000000
vt 0.596489 1.000000
vt 0.575656 0.000000
vt 0.554823 1.000000
vt 0.533989 0.000000
vt 0.533989 1.000000
vt 0.596489 -0.000000
vt 0.617323 1.000000
vt 0.617323 0.000000
vt 0.679823 0.000000
vt 0.679823 0.000000
vt 0.596489 -0.000000
vt 0.658989 -0.000000
vt 0.638156 1.000000
vt 0.638156 0.000000
vt 0.554823 0.000000
vt 1.006719 1.001552
vt 0.375000 1.633271
vt 0.375000 1.001552
vt 1.006719 -0.893605
vt 0.375000 -0.261886
vt 0.375000 -0.893605
vt 0.375000 0.369833
vt -0.256719 1.001552
vt -0.256719 0.369833
vt 1.006719 0.369833
vt 1.006719 -0.261886
vt 0.935368 -0.614663
vt 0.581064 -0.083208
vt 0.581064 -0.614663
vt -0.009442 0.182520
vt 0.226761 -0.614663
vt 0.226761 0.182520
vt 0.581064 -0.083208
vt 0.226761 -0.614663
vt 0.581064 -0.614663
vt 0.581064 -0.083208
vt 0.935368 -0.083208
vt 0.598090 -0.057669
vt 0.581064 0.448248
vt 0.918342 0.422709
vt 0.935368 0.448248
vt -0.009442 0.979702
vt 0.226761 0.182520
vt 0.226761 0.979702
vt 0.226761 0.979702
vt 0.462963 0.182520
vt 0.462963 0.979702
vt 1.000000 1.000000
vt 0.500000 1.000000
vt 0.513156 -0.000000
vt 1.006719 1.633271
vt 0.935368 -0.083208
vt -0.009442 -0.614663
vt 0.226761 -0.083208
vt 0.598090 0.422709
vt 0.918342 -0.057669
vt -0.009442 0.182520
vt 0.226761 0.182520
s 0
usemtl blue_ribbon.001
f 2/1/1 10/2/1 9/3/1
f 5/4/2 11/5/2 12/6/2
f 6/7/3 16/8/3 15/9/3
f 9/3/4 7/10/4 6/7/4
f 12/6/5 3/11/5 1/12/5
f 13/13/3 8/14/3 5/4/3
f 18/1/6 26/2/6 25/3/6
f 21/4/7 27/5/7 28/6/7
f 22/7/3 24/14/3 21/4/3
f 25/3/8 23/10/8 22/7/8
f 28/6/9 19/11/9 17/12/9
f 30/14/3 43/15/3 44/16/3
f 31/17/3 45/18/3 43/15/3
f 47/19/3 35/17/3 46/20/3
f 35/17/3 33/7/3 48/21/3
f 29/4/10 50/22/10 45/18/10
f 37/14/11 44/16/11 49/16/11
f 30/14/12 38/17/12 31/17/12
f 31/17/13 36/4/13 29/4/13
f 32/4/14 40/7/14 33/7/14
f 34/14/15 51/23/15 41/14/15
f 34/14/16 42/17/16 35/17/16
f 35/17/17 39/4/17 32/4/17
f 33/7/10 52/21/10 48/21/10
f 69/24/18 55/25/18 56/26/18
f 63/27/19 58/28/19 59/29/19
f 54/30/20 65/31/20 53/32/20
f 86/33/21 78/34/21 88/35/21
f 82/36/22 74/37/22 83/24/22
f 85/38/23 72/39/23 87/40/23
f 75/41/24 81/42/24 76/43/24
f 86/33/3 61/44/3 79/45/3
f 66/38/25 54/30/25 55/25/25
f 72/39/26 84/31/26 87/40/26
f 70/42/27 57/46/27 58/28/27
f 60/47/28 63/27/28 59/29/28
f 76/43/29 80/48/29 77/49/29
f 64/36/30 56/26/30 57/46/30
f 88/35/31 77/49/31 80/48/31
f 61/44/32 62/35/32 60/47/32
f 83/24/33 73/50/33 85/38/33
f 2/1/1 4/83/1 10/2/1
f 5/4/2 8/14/2 11/5/2
f 6/7/3 7/10/3 16/8/3
f 9/3/4 10/2/4 7/10/4
f 12/6/5 11/5/5 3/11/5
f 13/13/3 14/84/3 8/14/3
f 18/1/6 20/83/6 26/2/6
f 21/4/7 24/14/7 27/5/7
f 22/7/3 23/10/3 24/14/3
f 25/3/8 26/2/8 23/10/8
f 28/6/9 27/5/9 19/11/9
f 30/14/3 31/17/3 43/15/3
f 31/17/3 29/4/3 45/18/3
f 47/19/3 34/14/3 35/17/3
f 48/21/3 46/20/3 35/17/3
f 35/17/3 32/4/3 33/7/3
f 29/4/10 36/4/10 50/22/10
f 37/14/11 30/14/11 44/16/11
f 30/14/12 37/14/12 38/17/12
f 31/17/13 38/17/13 36/4/13
f 32/4/14 39/4/14 40/7/14
f 34/14/15 47/19/15 51/23/15
f 34/14/16 41/14/16 42/17/16
f 35/17/17 42/17/17 39/4/17
f 33/7/10 40/7/10 52/21/10
f 69/24/18 66/38/18 55/25/18
f 63/27/19 70/42/19 58/28/19
f 54/30/20 68/40/20 65/31/20
f 86/33/21 79/45/21 78/34/21
f 82/36/22 75/41/22 74/37/22
f 85/38/23 73/50/23 72/39/23
f 75/41/24 82/36/24 81/42/24
f 86/33/3 67/33/3 61/44/3
f 66/38/25 68/40/25 54/30/25
f 72/39/26 71/85/26 84/31/26
f 70/42/27 64/36/27 57/46/27
f 60/47/28 62/35/28 63/27/28
f 76/43/29 81/42/29 80/48/29
f 64/36/30 69/24/30 56/26/30
f 88/35/31 78/34/31 77/49/31
f 61/44/32 67/33/32 62/35/32
f 83/24/33 74/37/33 73/50/33
usemtl wrap2
f 91/51/20 96/52/20 92/53/20
f 95/54/34 94/55/34 96/56/34
f 90/57/35 96/58/35 94/59/35
f 89/60/36 92/53/36 90/57/36
f 93/61/26 90/57/26 94/55/26
f 101/62/3 99/63/3 97/64/3
f 99/65/20 104/66/20 100/67/20
f 103/68/34 102/69/34 104/70/34
f 102/71/35 98/72/35 105/73/35
f 104/74/35 107/75/35 100/76/35
f 97/77/36 100/78/36 98/79/36
f 101/80/26 98/81/26 102/82/26
f 91/51/20 95/86/20 96/52/20
f 95/54/34 93/61/34 94/55/34
f 90/57/35 92/53/35 96/58/35
f 89/60/36 91/51/36 92/53/36
f 93/61/26 89/60/26 90/57/26
f 101/62/3 103/87/3 99/63/3
f 99/65/20 103/88/20 104/66/20
f 103/68/34 101/89/34 102/69/34
f 105/73/35 108/90/35 104/74/35
f 98/72/35 100/76/35 107/75/35
f 98/72/35 107/75/35 106/91/35
f 105/73/35 104/74/35 102/71/35
f 98/72/35 106/91/35 105/73/35
f 104/74/35 108/90/35 107/75/35
f 97/77/36 99/92/36 100/78/36
f 101/80/26 97/93/26 98/81/26
