# Blender 4.0.2
# www.blender.org
mtllib coinslot.mtl
o coinslot
v -0.068506 0.063812 -0.199972
v 0.068506 0.063812 -0.199972
v -0.068506 -0.204790 -0.199972
v 0.068506 -0.204790 -0.199972
v -0.068506 -0.289308 -0.115454
v 0.068506 -0.289308 -0.115454
v -0.068506 -0.320244 0.000000
v 0.068506 -0.320244 0.000000
v -0.068506 -0.289308 0.115454
v 0.068506 -0.289308 0.115454
v -0.068506 -0.204790 0.199972
v 0.068506 -0.204790 0.199972
v -0.068506 0.063812 0.199972
v 0.068506 0.063812 0.199972
v -0.068506 0.179265 0.199972
v 0.068506 0.179265 0.199972
v -0.068506 0.263783 0.115454
v 0.068506 0.263783 0.115454
v -0.068506 0.294719 0.000000
v 0.068506 0.294719 0.000000
v -0.068506 0.263783 -0.115454
v 0.068506 0.263783 -0.115454
v -0.068506 0.179265 -0.199972
v 0.068506 0.179265 -0.199972
vn -0.0000 -0.0000 -1.0000
vn -0.0000 -0.7071 -0.7071
vn -0.0000 -0.9659 -0.2588
vn -0.0000 -0.9659 0.2588
vn -0.0000 -0.7071 0.7071
vn -0.0000 -0.0000 1.0000
vn -0.0000 0.7071 0.7071
vn -0.0000 0.9659 0.2588
vn -0.0000 0.9659 -0.2588
vn 1.0000 -0.0000 -0.0000
vn -0.0000 0.7071 -0.7071
vn -1.0000 -0.0000 -0.0000
vt 0.240848 0.817280
vt -0.044659 -0.322289
vt 1.419712 0.272312
vt -0.044659 1.322289
vt 0.750000 0.490000
vt 0.957846 0.130000
vt 0.542154 0.130000
vt -0.437036 1.070981
vt -0.437035 0.272312
vt -0.437036 -0.070981
vt 0.491338 -0.414274
vt 1.027335 -0.322289
vt 1.419712 -0.070981
vt 1.419712 1.070981
vt 1.027335 1.322289
vt 0.491338 1.414274
vt 0.870000 0.457846
vt 0.957846 0.370000
vt 0.990000 0.250000
vt 0.870000 0.042154
vt 0.750000 0.010000
vt 0.630000 0.042154
vt 0.510000 0.250000
vt 0.542154 0.370000
vt 0.630000 0.457846
s 0
usemtl coin_slot
f 2/1/1 3/1/1 1/1/1
f 4/1/2 5/1/2 3/1/2
f 6/1/3 7/1/3 5/1/3
f 8/1/4 9/1/4 7/1/4
f 10/1/5 11/1/5 9/1/5
f 12/1/6 13/1/6 11/1/6
f 14/1/6 15/1/6 13/1/6
f 16/1/7 17/1/7 15/1/7
f 18/1/8 19/1/8 17/1/8
f 20/1/9 21/1/9 19/1/9
f 22/2/10 14/3/10 6/4/10
f 22/1/11 23/1/11 21/1/11
f 24/1/1 1/1/1 23/1/1
f 1/5/12 9/6/12 17/7/12
f 2/1/1 4/1/1 3/1/1
f 4/1/2 6/1/2 5/1/2
f 6/1/3 8/1/3 7/1/3
f 8/1/4 10/1/4 9/1/4
f 10/1/5 12/1/5 11/1/5
f 12/1/6 14/1/6 13/1/6
f 14/1/6 16/1/6 15/1/6
f 16/1/7 18/1/7 17/1/7
f 18/1/8 20/1/8 19/1/8
f 20/1/9 22/1/9 21/1/9
f 6/4/10 4/8/10 2/9/10
f 2/9/10 24/10/10 22/2/10
f 22/2/10 20/11/10 18/12/10
f 18/12/10 16/13/10 14/3/10
f 14/3/10 12/14/10 10/15/10
f 10/15/10 8/16/10 6/4/10
f 6/4/10 2/9/10 22/2/10
f 22/2/10 18/12/10 14/3/10
f 14/3/10 10/15/10 6/4/10
f 22/1/11 24/1/11 23/1/11
f 24/1/1 2/1/1 1/1/1
f 1/5/12 3/17/12 5/18/12
f 5/18/12 7/19/12 9/6/12
f 9/6/12 11/20/12 13/21/12
f 13/21/12 15/22/12 17/7/12
f 17/7/12 19/23/12 21/24/12
f 21/24/12 23/25/12 1/5/12
f 1/5/12 5/18/12 9/6/12
f 9/6/12 13/21/12 17/7/12
f 17/7/12 21/24/12 1/5/12
