# Blender 4.0.2
# www.blender.org
mtllib square_gift.mtl
o hat.003
v 1.045321 0.232542 -1.118038
v 1.045321 -0.236699 -1.118038
v 1.045321 0.232542 1.094615
v 1.045321 -0.236699 1.094615
v -1.167333 0.232542 -1.118038
v -1.167333 -0.236699 -1.118038
v -1.167333 0.232542 1.094615
v -1.167333 -0.236699 1.094615
v -1.061006 -0.236699 -1.011711
v 0.938994 -0.236699 -1.011711
v 0.938994 -0.236699 0.988288
v -1.061006 -0.236699 0.988288
v 0.088994 0.232542 -1.118038
v 0.088994 -0.236699 1.094615
v 0.088994 0.232542 1.094615
v 0.088994 -0.236699 -1.118038
v 0.074578 -0.236699 0.988288
v -0.211006 0.232542 -1.118038
v -0.211006 -0.236699 1.094615
v -0.211006 0.232542 1.094615
v -0.211006 -0.236699 -1.118038
v -0.199943 -0.236699 0.988288
v 1.045321 0.232542 0.138288
v -1.167333 0.232542 0.138288
v 1.045321 -0.236699 0.138288
v -1.167333 -0.236699 0.138288
v 0.088994 0.232542 0.138288
v -0.211006 0.232542 0.138288
v 1.045321 0.232542 -0.161711
v -1.167333 0.232542 -0.161711
v 1.045321 -0.236699 -0.161711
v -1.167333 -0.236699 -0.161711
v 0.088994 0.232542 -0.161711
v -0.211006 0.232542 -0.161711
v 0.339884 0.232542 0.138288
v 0.330114 0.232542 -0.161711
v 0.183111 0.232542 -0.015692
v 0.938994 0.140614 -1.011711
v 0.938994 -1.427928 -1.011711
v 0.938994 0.140614 0.988288
v 0.938994 -1.427928 0.988288
v -1.061006 0.140614 -1.011711
v -1.061006 -1.427928 -1.011711
v -1.061006 0.140614 0.988288
v -1.061006 -1.427928 0.988288
v -0.211006 -1.427928 -1.011711
v -0.211006 0.140614 0.988288
v -0.211006 -1.427928 0.988288
v -0.211006 0.140614 -1.011711
v 0.088994 -1.427928 0.988288
v 0.088994 0.140614 -1.011711
v 0.088994 -1.427928 -1.011711
v 0.088994 0.140614 0.988288
v -1.061006 -1.427928 0.138288
v 0.938994 0.140614 0.138288
v -1.061006 0.140614 0.138288
v 0.938994 -1.427928 0.138288
v -0.211006 -1.427928 0.138288
v 0.088994 -1.427928 0.138288
v -1.061006 0.140614 -0.161711
v 0.938994 -1.427928 -0.161711
v -1.061006 -1.427928 -0.161711
v 0.938994 0.140614 -0.161711
v -0.211006 -1.427928 -0.161711
v 0.088994 -1.427928 -0.161711
v 0.495384 0.233343 -0.748816
v 0.707517 0.233343 -0.536684
v 0.525655 0.233343 -0.566954
v 0.707516 0.233343 0.503373
v 0.187488 0.233343 -0.016655
v 0.495384 0.233343 0.715505
v 0.525655 0.233343 0.533643
v 0.495384 0.228343 -0.748816
v 0.707517 0.228343 -0.536684
v 0.525655 0.228343 -0.566954
v 0.707516 0.228343 0.503373
v 0.187488 0.228343 -0.016655
v 0.495384 0.228343 0.715505
v 0.525655 0.228343 0.533643
v 0.088994 0.233343 -0.130293
v 0.088994 0.233343 0.081839
v 0.088994 0.233343 -0.342425
v 0.088994 0.233343 0.096982
v 0.088994 0.233343 0.309114
v 0.088994 0.233343 0.081839
v 0.088994 0.228343 0.081839
v 0.088994 0.228343 -0.342425
v 0.088994 0.228343 0.309114
v 0.088994 0.228343 0.081839
v 0.088994 0.230032 0.010552
v 0.088994 0.339501 0.010552
v 0.088994 0.477000 0.086197
v 0.088994 0.565788 0.226984
v 0.088994 0.606692 0.400103
v 0.088994 0.534364 0.598325
v 0.088994 0.404068 0.660901
v 0.088994 0.283311 0.555412
v 0.088994 0.234656 0.336511
v -0.211006 0.283311 0.555412
v -0.211006 0.404068 0.660901
v -0.211006 0.606692 0.400103
v -0.211006 0.230032 0.010552
v -0.211006 0.477000 0.086197
v -0.211006 0.234656 0.336511
v -0.211006 0.339501 0.010552
v -0.211006 0.565788 0.226984
v -0.211006 0.534364 0.598325
v 0.088994 0.230032 -0.011712
v -0.211006 0.230032 -0.011712
v 0.088994 0.339558 -0.011712
v 0.088994 0.477792 0.064214
v 0.088994 0.569098 0.210299
v 0.088994 0.611468 0.406685
v 0.088994 0.535982 0.619390
v 0.088994 0.403853 0.683145
v 0.088994 0.280949 0.575034
v 0.088994 0.230032 0.344979
v -0.211006 0.403853 0.683145
v -0.211006 0.339558 -0.011712
v -0.211006 0.477792 0.064213
v -0.211006 0.611468 0.406685
v -0.211006 0.569098 0.210299
v -0.211006 0.535982 0.619390
v -0.211006 0.230032 0.344979
v -0.211006 0.280949 0.575034
v 0.088994 0.230032 -0.033976
v 0.088994 0.339501 -0.033976
v 0.088994 0.477000 -0.109620
v 0.088994 0.565788 -0.250407
v 0.088994 0.606692 -0.423527
v 0.088994 0.534364 -0.621748
v 0.088994 0.404069 -0.684325
v 0.088994 0.283311 -0.578836
v 0.088994 0.234656 -0.359935
v -0.211006 0.404068 -0.684325
v -0.211006 0.534364 -0.621748
v -0.211006 0.606692 -0.423526
v -0.211006 0.565788 -0.250407
v -0.211006 0.230032 -0.033976
v -0.211006 0.477000 -0.109620
v -0.211006 0.234656 -0.359935
v -0.211006 0.339501 -0.033976
v -0.211006 0.283311 -0.578836
v 0.088994 0.477792 -0.087637
v 0.088994 0.569098 -0.233722
v 0.088994 0.611468 -0.430108
v 0.088994 0.535982 -0.642814
v 0.088994 0.403853 -0.706568
v 0.088994 0.280949 -0.598458
v 0.088994 0.230032 -0.368402
v -0.211006 0.280949 -0.598458
v -0.211006 0.535982 -0.642814
v -0.211006 0.477792 -0.087637
v 0.088994 0.229656 -0.119919
v -0.211006 0.403853 -0.706568
v -0.211006 0.229656 -0.119920
v -0.211006 0.611468 -0.430108
v -0.211006 0.569098 -0.233722
v -0.211006 0.230032 -0.368402
v -1.061006 -1.427911 0.138288
v 0.938994 -1.427911 0.138288
v -1.061006 -1.427911 -0.161711
v 0.938994 -1.427911 -0.161711
v 1.045320 -0.236699 0.138288
v 1.045320 -0.236699 -0.161712
v -1.167332 -0.236699 -0.161711
v -1.167332 -0.236699 0.138289
v 0.088994 -1.432911 0.988288
v 0.088994 -1.432911 -1.011711
v -0.211006 -1.432911 0.988288
v -0.211006 -1.432911 -1.011711
v 0.088994 -0.208402 -1.120739
v -0.211006 -0.208402 -1.120739
v -0.211006 -0.236699 1.094615
v 0.088994 -0.236699 1.094615
vn -0.0000 1.0000 -0.0000
vn -0.0000 -0.0000 1.0000
vn -1.0000 -0.0000 -0.0000
vn -0.0000 -1.0000 -0.0000
vn 1.0000 -0.0000 -0.0000
vn -0.0000 -0.0000 -1.0000
vn -0.7071 -0.0000 -0.7071
vn 0.7071 -0.0000 0.7071
vn 0.1642 -0.0000 -0.9864
vn 0.9864 -0.0000 -0.1642
vn 0.7071 -0.0000 -0.7071
vn -0.7071 -0.0000 0.7071
vn 0.9864 -0.0000 0.1642
vn 0.1642 -0.0000 0.9864
vn -0.0000 0.8480 -0.5300
vn -0.0000 0.4346 0.9006
vn -0.0000 0.9775 -0.2109
vn -0.0000 0.4346 -0.9006
vn -0.0000 0.4814 -0.8765
vn -0.0000 -0.9764 0.2161
vn -0.0000 -0.6605 -0.7509
vn -0.0000 0.9775 0.2109
vn -0.0000 0.9424 0.3344
vn -0.0000 0.8480 0.5300
vn -0.0000 -0.6605 0.7509
vn -0.0000 -0.9764 -0.2161
vn -0.0000 0.4814 0.8765
vn -0.0000 0.9424 -0.3344
vn 0.9960 -0.0889 -0.0000
vn -0.9960 -0.0889 -0.0000
vn -0.0000 -0.0887 -0.9961
vn -0.0000 -0.0885 0.9961
vt 0.432208 1.000000
vt 0.000000 0.552022
vt 0.432208 0.552022
vt 0.461390 0.651777
vt 0.037595 0.371475
vt 0.461390 0.371475
vt 0.447298 0.786292
vt 0.032718 0.499376
vt 0.447298 0.499376
vt 0.580970 0.146492
vt 0.739784 -0.083208
vt 0.782235 -0.083208
vt 0.739784 0.448248
vt 0.598090 0.422709
vt 0.741556 0.422709
vt 0.392999 0.785371
vt -0.015877 0.505069
vt 0.392999 0.505069
vt 0.472237 0.699212
vt 0.127688 0.463010
vt 0.472237 0.463010
vt 0.567751 0.699212
vt 0.567751 0.463010
vt 0.782235 0.448248
vt 0.918342 0.422709
vt 0.935368 0.448248
vt 0.983613 0.651777
vt 0.574736 0.371475
vt 0.983613 0.371475
vt 0.432208 0.318819
vt -0.000000 0.432208
vt -0.000000 0.000000
vt 0.924870 0.699212
vt 0.924870 0.463010
vt 0.779926 0.422709
vt 0.574736 0.651777
vt 0.432208 0.432208
vt 0.567792 0.552022
vt 0.567792 0.432208
vt 0.567792 0.323235
vt 0.432208 0.000000
vt 0.521264 0.785371
vt 0.521264 0.505069
vt 0.581064 0.448248
vt 0.935313 0.218548
vt 0.991934 0.786292
vt 0.577353 0.499376
vt 0.991934 0.499376
vt 0.567792 1.000000
vt 1.000000 1.000000
vt 1.000000 0.552022
vt 0.930140 0.785371
vt 0.930140 0.505069
vt 1.000000 0.432208
vt 0.567792 0.000000
vt 0.580940 0.218548
vt 0.935326 0.146492
vt 0.577353 0.786292
vt 0.425285 0.954911
vt 0.106678 0.205250
vt 0.425285 0.205250
vt 0.549337 0.751579
vt 0.230731 0.001917
vt 0.549337 0.001917
vt 0.383521 0.948021
vt 0.064914 0.629415
vt 0.383521 0.629415
vt 0.661228 1.144158
vt 0.342622 0.394496
vt 0.661228 0.394496
vt 0.661228 0.394497
vt 0.342622 -0.355165
vt 0.661228 -0.355165
vt 1.092283 0.394496
vt 0.773677 -0.355165
vt 1.092283 -0.355165
vt 0.383521 0.516966
vt 0.064914 0.198360
vt 0.383521 0.198360
vt 0.537734 0.954911
vt 0.537734 0.205250
vt 0.856340 0.954911
vt 0.856340 0.205250
vt 0.773677 0.394496
vt 0.064914 0.516966
vt 0.495970 0.629415
vt 0.495970 0.516966
vt 0.495970 0.198360
vt 0.773677 1.144158
vt 0.773677 0.394496
vt 0.495970 0.948021
vt 0.980393 0.751579
vt 0.661787 0.001917
vt 0.980393 0.001917
vt 0.814576 0.948021
vt 0.814576 0.629415
vt 1.092283 1.144158
vt 1.092283 0.394496
vt 0.814576 0.516966
vt 0.814576 0.198360
vt 0.661787 0.751579
vt 0.333333 1.000000
vt 0.555091 0.500000
vt 0.614930 1.000000
vt 0.333333 0.500000
vt 0.518352 0.000000
vt 0.593826 1.000000
vt 0.660985 0.500000
vt 0.666667 0.000000
vt 0.666667 0.464306
vt 0.333333 0.000000
vt 0.518352 0.000000
vt 0.593826 1.000000
vt 0.542172 1.000000
vt 0.521339 -0.000000
vt 0.521339 1.000000
vt 0.604672 -0.000000
vt 0.583839 1.000000
vt 0.604672 1.000000
vt 0.479672 1.000000
vt 0.479672 -0.000000
vt 0.563005 1.000000
vt 0.542172 0.000000
vt 0.604672 0.000000
vt 0.583839 0.000000
vt 0.500505 0.000000
vt 0.625505 1.000000
vt 0.646339 1.000000
vt 0.625505 -0.000000
vt 0.625505 -0.000000
vt 0.604672 1.000000
vt 0.479672 0.000000
vt 0.500505 1.000000
vt 0.542172 -0.000000
vt 0.563005 -0.000000
vt 0.563005 0.000000
vt 0.521339 0.000000
vt 0.646339 0.000000
vt 0.479672 -0.000000
vt 0.583839 0.000000
vt 0.583839 0.000000
vt 1.000000 0.000000
vt 0.833333 1.000000
vt 0.833333 0.000000
vt 0.166667 0.000000
vt 0.000000 1.000000
vt 0.000000 0.000000
vt 0.000000 1.000000
vt 0.037595 0.651777
vt 0.032718 0.786292
vt 0.935368 -0.083208
vt 0.581064 -0.083208
vt -0.015877 0.785371
vt 0.127688 0.699212
vt 0.501799 0.389672
vt 0.918342 -0.057669
vt 0.598090 -0.057669
vt 1.000000 0.000000
vt 0.106678 0.954911
vt 0.230731 0.751579
vt 0.064914 0.948021
vt 0.342622 1.144158
vt 0.342622 0.394497
vt 0.667172 1.000000
vt 0.604672 0.000000
vt 0.625505 0.000000
vt 0.500505 0.000000
vt 0.583839 0.000000
vt 0.521339 0.000000
vt 0.542172 0.000000
vt 0.500505 0.000000
vt 0.667172 0.000000
vt 0.646339 0.000000
vt 0.542172 0.000000
vt 0.563005 -0.000000
vt 1.000000 1.000000
vt 0.166667 1.000000
s 0
usemtl wrap1
f 24/1/1 20/2/1 28/3/1
f 20/4/2 8/5/2 19/6/2
f 30/7/3 6/8/3 32/9/3
f 32/10/4 21/11/4 16/12/4
f 19/13/4 12/14/4 22/15/4
f 23/16/5 4/17/5 25/18/5
f 13/19/6 2/20/6 16/21/6
f 14/24/4 11/25/4 4/26/4
f 3/27/2 14/28/2 4/29/2
f 35/30/1 15/31/1 3/32/1
f 5/33/6 21/23/6 6/34/6
f 19/13/4 17/35/4 14/24/4
f 8/44/4 25/45/4 4/26/4
f 7/46/3 26/47/3 8/48/3
f 5/50/1 34/38/1 18/51/1
f 1/52/5 31/43/5 2/53/5
f 13/54/1 36/40/1 29/55/1
f 26/56/4 31/57/4 25/45/4
f 47/59/2 45/60/2 48/61/2
f 60/62/3 43/63/3 62/64/3
f 57/65/4 50/66/4 59/67/4
f 55/68/5 41/69/5 57/70/5
f 51/71/6 39/72/6 52/73/6
f 42/74/6 46/75/6 43/76/6
f 58/77/4 45/78/4 54/79/4
f 53/80/2 48/61/2 50/81/2
f 40/82/2 50/81/2 41/83/2
f 49/84/6 52/73/6 46/75/6
f 63/89/5 57/70/5 61/90/5
f 44/92/3 54/93/3 45/94/3
f 39/95/4 65/86/4 52/96/4
f 38/97/5 61/90/5 39/98/5
f 46/99/4 62/88/4 43/100/4
f 56/101/3 62/64/3 54/93/3
f 24/1/1 7/148/1 20/2/1
f 20/4/2 7/149/2 8/5/2
f 30/7/3 5/150/3 6/8/3
f 2/151/4 31/57/4 32/10/4
f 32/10/4 6/152/4 21/11/4
f 16/12/4 2/151/4 32/10/4
f 19/13/4 8/44/4 12/14/4
f 23/16/5 3/153/5 4/17/5
f 13/19/6 1/154/6 2/20/6
f 14/24/4 17/35/4 11/25/4
f 3/27/2 15/36/2 14/28/2
f 3/32/1 23/41/1 35/30/1
f 35/30/1 27/37/1 15/31/1
f 5/33/6 18/22/6 21/23/6
f 19/13/4 22/15/4 17/35/4
f 11/25/1 10/156/1 9/157/1
f 11/25/1 9/157/1 12/14/1
f 4/26/1 11/25/1 12/14/1
f 4/26/1 12/14/1 8/44/1
f 8/44/4 26/56/4 25/45/4
f 7/46/3 24/58/3 26/47/3
f 5/50/1 30/49/1 34/38/1
f 1/52/5 29/42/5 31/43/5
f 29/55/1 1/158/1 13/54/1
f 13/54/1 33/39/1 36/40/1
f 26/56/4 32/10/4 31/57/4
f 47/59/2 44/159/2 45/60/2
f 60/62/3 42/160/3 43/63/3
f 57/65/4 41/161/4 50/66/4
f 55/68/5 40/162/5 41/69/5
f 51/71/6 38/163/6 39/72/6
f 42/74/6 49/84/6 46/75/6
f 58/77/4 48/85/4 45/78/4
f 53/80/2 47/59/2 48/61/2
f 40/82/2 53/80/2 50/81/2
f 49/84/6 51/71/6 52/73/6
f 63/89/5 55/68/5 57/70/5
f 44/92/3 56/101/3 54/93/3
f 39/95/4 61/91/4 65/86/4
f 38/97/5 63/89/5 61/90/5
f 46/99/4 64/87/4 62/88/4
f 56/101/3 60/62/3 62/64/3
usemtl blue_ribbon
f 18/22/6 16/21/6 21/23/6
f 15/36/2 19/6/2 14/28/2
f 28/3/1 15/31/1 27/37/1
f 34/38/1 27/37/1 33/39/1
f 36/40/1 35/30/1 23/41/1
f 29/42/5 25/18/5 31/43/5
f 30/49/1 28/3/1 34/38/1
f 18/51/1 33/39/1 13/54/1
f 24/58/3 32/9/3 26/47/3
f 59/67/4 48/85/4 58/77/4
f 65/86/4 58/77/4 64/87/4
f 64/87/4 54/79/4 62/88/4
f 61/91/4 59/67/4 65/86/4
f 52/96/4 64/87/4 46/99/4
f 67/102/1 80/103/1 81/104/1
f 68/105/1 82/106/1 80/103/1
f 84/107/1 72/105/1 83/108/1
f 72/105/1 70/109/1 85/110/1
f 66/111/7 87/112/7 82/106/7
f 74/102/8 81/104/8 86/104/8
f 67/102/9 75/105/9 68/105/9
f 68/105/10 73/111/10 66/111/10
f 69/111/11 77/109/11 70/109/11
f 71/102/12 88/113/12 78/102/12
f 71/102/13 79/105/13 72/105/13
f 72/105/14 76/111/14 69/111/14
f 70/109/7 89/110/7 85/110/7
f 122/114/15 111/115/15 120/116/15
f 115/117/16 123/118/16 118/119/16
f 109/120/4 90/121/4 102/120/4
f 121/122/17 112/123/17 122/114/17
f 148/124/18 152/118/18 147/125/18
f 110/126/19 120/116/19 111/115/19
f 100/119/3 125/127/3 118/119/3
f 124/128/20 116/129/20 125/127/20
f 149/130/21 155/131/21 148/124/21
f 108/132/6 119/133/6 110/126/6
f 140/116/3 153/116/3 158/114/3
f 157/122/22 145/134/22 146/135/22
f 123/118/23 113/136/23 121/122/23
f 145/134/24 153/116/24 144/137/24
f 116/129/25 118/119/25 125/127/25
f 159/128/26 149/130/26 150/138/26
f 109/120/4 126/139/4 108/132/4
f 144/137/27 119/133/27 110/126/27
f 146/135/5 145/134/5 130/135/5
f 147/125/28 157/122/28 146/135/28
f 95/140/5 113/136/5 114/141/5
f 161/142/29 165/143/29 164/144/29
f 167/145/30 162/146/30 160/147/30
f 169/142/31 173/143/31 172/144/31
f 175/145/32 170/146/32 168/147/32
f 18/22/6 13/19/6 16/21/6
f 15/36/2 20/4/2 19/6/2
f 28/3/1 20/2/1 15/31/1
f 34/38/1 28/3/1 27/37/1
f 23/41/1 29/55/1 36/40/1
f 36/40/1 37/155/1 35/30/1
f 29/42/5 23/16/5 25/18/5
f 30/49/1 24/1/1 28/3/1
f 18/51/1 34/38/1 33/39/1
f 24/58/3 30/7/3 32/9/3
f 59/67/4 50/66/4 48/85/4
f 65/86/4 59/67/4 58/77/4
f 64/87/4 58/77/4 54/79/4
f 61/91/4 57/65/4 59/67/4
f 52/96/4 65/86/4 64/87/4
f 67/102/1 68/105/1 80/103/1
f 68/105/1 66/111/1 82/106/1
f 84/107/1 71/102/1 72/105/1
f 85/110/1 83/108/1 72/105/1
f 72/105/1 69/111/1 70/109/1
f 66/111/7 73/111/7 87/112/7
f 74/102/8 67/102/8 81/104/8
f 67/102/9 74/102/9 75/105/9
f 68/105/10 75/105/10 73/111/10
f 69/111/11 76/111/11 77/109/11
f 71/102/12 84/107/12 88/113/12
f 71/102/13 78/102/13 79/105/13
f 72/105/14 79/105/14 76/111/14
f 70/109/7 77/109/7 89/110/7
f 122/114/15 112/123/15 111/115/15
f 115/117/16 114/141/16 123/118/16
f 109/120/4 108/132/4 90/121/4
f 121/122/17 113/136/17 112/123/17
f 148/124/18 155/131/18 152/118/18
f 110/126/19 119/133/19 120/116/19
f 119/133/3 109/120/3 102/120/3
f 119/133/3 102/120/3 105/133/3
f 159/128/3 156/164/3 124/128/3
f 136/118/3 152/118/3 155/131/3
f 135/131/3 136/118/3 155/131/3
f 120/116/3 119/133/3 105/133/3
f 120/116/3 105/133/3 103/116/3
f 135/131/3 155/131/3 151/127/3
f 143/127/3 135/131/3 151/127/3
f 122/114/3 120/116/3 103/116/3
f 122/114/3 103/116/3 106/114/3
f 143/127/3 151/127/3 159/128/3
f 141/128/3 143/127/3 159/128/3
f 121/122/3 122/114/3 106/114/3
f 121/122/3 106/114/3 101/122/3
f 141/128/3 159/128/3 124/128/3
f 104/128/3 141/128/3 124/128/3
f 123/118/3 121/122/3 101/122/3
f 123/118/3 101/122/3 107/118/3
f 104/128/3 124/128/3 125/127/3
f 99/127/3 104/128/3 125/127/3
f 118/119/3 123/118/3 107/118/3
f 100/119/3 99/127/3 125/127/3
f 118/119/3 107/118/3 100/119/3
f 124/128/20 117/138/20 116/129/20
f 149/130/21 151/127/21 155/131/21
f 108/132/6 109/120/6 119/133/6
f 142/133/3 139/120/3 109/120/3
f 157/122/3 152/118/3 136/118/3
f 157/122/3 136/118/3 137/122/3
f 142/133/3 109/120/3 119/133/3
f 140/116/3 142/133/3 119/133/3
f 158/114/3 157/122/3 137/122/3
f 158/114/3 137/122/3 138/114/3
f 140/116/3 119/133/3 153/116/3
f 158/114/3 138/114/3 140/116/3
f 157/122/22 158/114/22 145/134/22
f 123/118/23 114/141/23 113/136/23
f 145/134/24 158/114/24 153/116/24
f 116/129/25 115/117/25 118/119/25
f 159/128/26 151/127/26 149/130/26
f 109/120/4 139/120/4 126/139/4
f 144/137/27 153/116/27 119/133/27
f 132/165/5 133/166/5 149/130/5
f 110/126/5 108/132/5 126/139/5
f 110/126/5 126/139/5 127/167/5
f 132/165/5 149/130/5 148/124/5
f 131/168/5 132/165/5 148/124/5
f 144/137/5 110/126/5 127/167/5
f 144/137/5 127/167/5 128/169/5
f 131/168/5 148/124/5 147/125/5
f 130/135/5 131/168/5 147/125/5
f 145/134/5 144/137/5 128/169/5
f 145/134/5 128/169/5 129/170/5
f 130/135/5 147/125/5 146/135/5
f 145/134/5 129/170/5 130/135/5
f 147/125/28 152/118/28 157/122/28
f 91/171/5 90/121/5 108/132/5
f 117/138/5 154/172/5 150/138/5
f 150/138/5 149/130/5 133/166/5
f 150/138/5 133/166/5 134/173/5
f 91/171/5 108/132/5 110/126/5
f 92/115/5 91/171/5 110/126/5
f 117/138/5 150/138/5 134/173/5
f 117/138/5 134/173/5 98/138/5
f 92/115/5 110/126/5 111/115/5
f 93/174/5 92/115/5 111/115/5
f 116/129/5 117/138/5 98/138/5
f 116/129/5 98/138/5 97/129/5
f 93/174/5 111/115/5 112/123/5
f 94/175/5 93/174/5 112/123/5
f 115/117/5 116/129/5 97/129/5
f 115/117/5 97/129/5 96/117/5
f 94/175/5 112/123/5 113/136/5
f 115/117/5 96/117/5 95/140/5
f 95/140/5 94/175/5 113/136/5
f 114/141/5 115/117/5 95/140/5
f 161/142/29 163/176/29 165/143/29
f 167/145/30 166/177/30 162/146/30
f 169/142/31 171/176/31 173/143/31
f 175/145/32 174/177/32 170/146/32
