# Blender 4.0.2
# www.blender.org
mtllib vending_machine.mtl
o low_low_poly_boy
v 2.184178 5.739663 -1.989005
v 2.184178 -7.093560 -1.989005
v 2.184178 5.739663 3.003321
v 2.184178 -7.093560 3.003321
v 2.184178 -3.954304 -1.384114
v 2.184178 -5.236395 -1.384114
v 2.184178 -5.236395 1.536100
v 2.184178 -3.954304 1.536100
v 2.227439 3.028814 -2.124430
v 2.227439 4.002971 -2.124430
v 2.227439 3.028814 -3.098588
v 2.227439 4.002971 -3.098588
v 1.508927 3.028814 -2.124430
v 1.508927 4.002971 -2.124430
v 1.508927 3.028814 -3.098588
v 1.508927 4.002971 -3.098588
v 2.227439 3.028814 -2.124430
v 2.227439 4.002971 -2.124430
v 2.227439 3.028814 -3.098588
v 2.227439 4.002971 -3.098588
v -2.693289 -7.843154 3.226326
v -2.693289 5.980647 3.226326
v -2.693289 -7.843154 -3.414245
v -2.693289 5.980647 -3.414245
v 2.148667 -7.843154 3.226326
v 2.148667 5.980647 3.226326
v 2.148667 -7.843154 -3.414245
v 2.148667 5.980647 -3.414245
v 2.148667 5.739664 3.003321
v 2.148667 5.739664 -1.989005
v 2.148667 -7.093562 3.003321
v 2.148667 -7.093562 -1.989005
v 2.184178 5.739663 -1.989005
v 2.184178 -7.093560 -1.989005
v 2.184178 5.739663 3.003321
v 2.184178 -7.093560 3.003321
v -2.083036 5.739663 -1.989005
v -2.083036 -7.093560 -1.989005
v -2.083036 5.739663 3.003321
v -2.083036 -7.093560 3.003321
v 0.951413 -5.176031 1.398608
v 0.951413 -4.014669 1.398608
v 0.951413 -5.176031 -1.246622
v 0.951413 -4.014669 -1.246622
v 2.184178 -5.236396 1.536100
v 2.184178 -3.954304 1.536100
v 2.184178 -5.236396 -1.384114
v 2.184178 -3.954304 -1.384114
v 2.184178 -5.176031 -1.246622
v 2.184178 -4.014669 -1.246622
v 2.184178 -4.014669 1.398608
v 2.184178 -5.176031 1.398608
v 2.150006 1.805237 -2.440657
v 2.205142 1.805237 -2.440657
v 2.150006 1.739533 -2.413441
v 2.205142 1.739533 -2.413441
v 2.150006 1.712317 -2.347737
v 2.205142 1.712317 -2.347737
v 2.150006 1.739533 -2.282033
v 2.205142 1.739533 -2.282033
v 2.150006 1.805237 -2.254817
v 2.205142 1.805237 -2.254817
v 2.150006 1.870942 -2.282033
v 2.205142 1.870942 -2.282033
v 2.150006 1.898157 -2.347737
v 2.205142 1.898157 -2.347737
v 2.150006 1.870942 -2.413441
v 2.205142 1.870942 -2.413441
v 2.184178 5.739664 -3.237043
v 2.184178 -7.093561 -3.237043
v 2.184178 5.739664 -1.989005
v 2.184178 -7.093561 -1.989005
v 2.246212 -0.152339 -2.158851
v 2.246212 0.712766 -2.158851
v 2.246212 -0.152339 -3.108538
v 2.246212 0.712766 -3.108538
v 1.527700 -0.152339 -2.158851
v 1.527700 0.712766 -2.158851
v 1.527700 -0.152339 -3.108538
v 1.527700 0.712766 -3.108538
v 2.246212 -0.152339 -2.158851
v 2.246212 0.712766 -2.158851
v 2.246212 -0.152339 -3.108538
v 2.246212 0.712766 -3.108538
v 1.622870 -0.128145 -2.236392
v 1.622870 0.670398 -2.236392
v 1.622870 -0.128145 -2.853511
v 1.622870 0.670398 -2.853511
v 2.295074 -0.128145 -2.236392
v 2.295074 0.670398 -2.236392
v 2.295074 -0.128145 -2.853511
v 2.295074 0.670398 -2.853511
vn 1.0000 -0.0000 -0.0000
vn -0.0000 -0.0000 -1.0000
vn -0.0000 -0.0000 1.0000
vn -0.0000 -1.0000 -0.0000
vn -0.0000 1.0000 -0.0000
vn -1.0000 -0.0000 -0.0000
vn -0.0000 -0.3827 -0.9239
vn -0.0000 -0.9239 -0.3827
vn -0.0000 -0.9239 0.3827
vn -0.0000 -0.3827 0.9239
vn -0.0000 0.3827 0.9239
vn -0.0000 0.9239 0.3827
vn -0.0000 0.9239 -0.3827
vn -0.0000 0.3827 -0.9239
vt 0.999927 0.989744
vt 0.293925 0.242111
vt 0.878781 0.242111
vt 0.293925 0.143231
vt 0.999927 0.000000
vt 0.878781 0.143231
vt 0.999900 0.999900
vt 0.000100 0.000100
vt 0.999900 0.000100
vt 0.200576 0.848780
vt 0.625000 0.000000
vt 0.375000 0.250000
vt 0.375000 0.000000
vt 0.625000 0.250000
vt 0.375000 0.500000
vt 0.625000 0.750000
vt 0.388556 0.741411
vt 0.620642 0.741411
vt 0.625000 0.500000
vt 0.388556 0.549128
vt 0.375000 1.000000
vt 0.375000 0.750000
vt 0.875000 0.500000
vt 0.474342 0.828429
vt 0.375000 0.480641
vt 0.125000 0.750000
vt 0.355641 0.500000
vt 0.125000 0.500000
vt 0.386771 0.511771
vt 0.613229 0.738229
vt 0.625000 0.769359
vt 0.375000 0.769359
vt 0.875000 0.750000
vt 0.644359 0.500000
vt 0.644359 0.750000
vt 1.000000 1.000000
vt 1.000000 0.500000
vt 0.875000 1.000000
vt 0.750000 0.500000
vt 0.750000 1.000000
vt 0.625000 1.000000
vt 0.500000 0.500000
vt 0.500000 1.000000
vt 0.250000 0.500000
vt 0.010000 0.250000
vt 0.250000 0.010000
vt 0.490000 0.250000
vt 0.250000 1.000000
vt 0.125000 1.000000
vt 0.000000 0.500000
vt 0.736097 0.721417
vt 0.989689 0.999908
vt 0.008097 0.000092
vt 0.989689 0.000092
vt 0.000073 0.989745
vt 0.000073 0.000000
vt 0.000100 0.999900
vt 0.620642 0.549128
vt 0.625000 0.480641
vt 0.355641 0.750000
vt 0.613229 0.511771
vt 0.386771 0.738229
vt 0.419706 0.419706
vt 0.250000 0.490000
vt 0.080294 0.419706
vt 0.080294 0.080294
vt 0.419706 0.080294
vt 0.000000 1.000000
vt 0.008098 0.999908
s 0
usemtl banner
f 1/1/1 8/2/1 5/3/1
f 7/4/1 2/5/1 6/6/1
f 37/24/5 35/24/5 33/24/5
f 35/24/3 40/24/3 36/24/3
f 34/24/4 40/24/4 38/24/4
f 37/24/2 34/24/2 38/24/2
f 5/3/1 6/6/1 2/5/1
f 1/1/1 3/55/1 4/56/1
f 4/56/1 7/4/1 8/2/1
f 5/3/1 2/5/1 1/1/1
f 1/1/1 4/56/1 8/2/1
f 7/4/1 4/56/1 2/5/1
f 37/24/5 39/24/5 35/24/5
f 35/24/3 39/24/3 40/24/3
f 34/24/4 36/24/4 40/24/4
f 37/24/2 33/24/2 34/24/2
usemtl 05glass
f 12/7/1 9/8/1 11/9/1
f 16/10/2 19/10/2 15/10/2
f 18/10/3 13/10/3 17/10/3
f 19/10/4 13/10/4 15/10/4
f 16/10/5 18/10/5 20/10/5
f 12/7/1 10/57/1 9/8/1
f 16/10/2 20/10/2 19/10/2
f 18/10/3 14/10/3 13/10/3
f 19/10/4 17/10/4 13/10/4
f 16/10/5 14/10/5 18/10/5
usemtl border
f 22/11/6 23/12/6 21/13/6
f 24/14/2 27/15/2 23/12/2
f 26/16/1 31/17/1 29/18/1
f 27/15/1 28/19/1 32/20/1
f 26/16/3 21/21/3 25/22/3
f 24/23/5 26/16/5 28/19/5
f 43/12/1 42/11/1 41/13/1
f 49/25/3 44/14/3 43/12/3
f 41/26/5 49/27/5 43/28/5
f 47/15/1 49/29/1 45/22/1
f 51/30/1 48/19/1 46/16/1
f 41/21/2 51/31/2 52/32/2
f 42/33/4 50/34/4 51/35/4
f 69/19/1 72/22/1 70/15/1
f 76/19/1 73/22/1 75/15/1
f 80/14/2 83/15/2 79/12/2
f 82/16/3 77/21/3 81/22/3
f 83/15/4 77/26/4 79/28/4
f 80/23/5 82/16/5 84/19/5
f 22/11/6 24/14/6 23/12/6
f 24/14/2 28/19/2 27/15/2
f 26/16/1 25/22/1 31/17/1
f 32/20/1 31/17/1 25/22/1
f 28/19/1 26/16/1 29/18/1
f 28/19/1 29/18/1 30/58/1
f 32/20/1 25/22/1 27/15/1
f 28/19/1 30/58/1 32/20/1
f 26/16/3 22/41/3 21/21/3
f 24/23/5 22/33/5 26/16/5
f 43/12/1 44/14/1 42/11/1
f 49/25/3 50/59/3 44/14/3
f 41/26/5 52/60/5 49/27/5
f 47/15/1 48/19/1 50/61/1
f 49/29/1 52/62/1 45/22/1
f 47/15/1 50/61/1 49/29/1
f 46/16/1 45/22/1 52/62/1
f 51/30/1 50/61/1 48/19/1
f 46/16/1 52/62/1 51/30/1
f 41/21/2 42/41/2 51/31/2
f 42/33/4 44/23/4 50/34/4
f 69/19/1 71/16/1 72/22/1
f 76/19/1 74/16/1 73/22/1
f 80/14/2 84/19/2 83/15/2
f 82/16/3 78/41/3 77/21/3
f 83/15/4 81/22/4 77/26/4
f 80/23/5 78/33/5 82/16/5
usemtl white
f 54/36/7 55/23/7 53/37/7
f 56/38/8 57/39/8 55/23/8
f 58/40/9 59/19/9 57/39/9
f 60/41/10 61/42/10 59/19/10
f 62/43/11 63/15/11 61/42/11
f 64/21/12 65/44/12 63/15/12
f 66/45/1 62/46/1 58/47/1
f 66/48/13 67/28/13 65/44/13
f 68/49/14 53/50/14 67/28/14
f 54/36/7 56/38/7 55/23/7
f 56/38/8 58/40/8 57/39/8
f 58/40/9 60/41/9 59/19/9
f 60/41/10 62/43/10 61/42/10
f 62/43/11 64/21/11 63/15/11
f 64/21/12 66/48/12 65/44/12
f 58/47/1 56/63/1 54/64/1
f 54/64/1 68/65/1 66/45/1
f 66/45/1 64/66/1 62/46/1
f 62/46/1 60/67/1 58/47/1
f 58/47/1 54/64/1 66/45/1
f 66/48/13 68/49/13 67/28/13
f 68/49/14 54/68/14 53/50/14
usemtl cavecola_combined
f 88/51/2 91/51/2 87/51/2
f 92/52/1 89/53/1 91/54/1
f 90/51/3 85/51/3 89/51/3
f 91/51/4 85/51/4 87/51/4
f 88/51/5 90/51/5 92/51/5
f 88/51/2 92/51/2 91/51/2
f 92/52/1 90/69/1 89/53/1
f 90/51/3 86/51/3 85/51/3
f 91/51/4 89/51/4 85/51/4
f 88/51/5 86/51/5 90/51/5
