# Blender 4.0.2
# www.blender.org
mtllib vending_machine_nobuttons.mtl
o vending_nobuttons
v 2.673054 6.670917 -1.969892
v 1.268016 -4.305141 1.555213
v 2.673054 -6.162306 -1.969892
v 1.268016 -3.023050 1.555213
v 2.673054 6.670917 3.022434
v 1.268016 -4.305141 -1.365001
v 2.673054 -6.162306 3.022434
v 1.268016 -3.023050 -1.365001
v -1.594160 6.670917 -1.969892
v -1.594160 -6.162306 -1.969892
v -1.594160 6.670917 3.022434
v -1.594160 -6.162306 3.022434
v 2.673054 -3.023050 -1.365001
v 2.673054 -4.305141 -1.365001
v 2.673054 -4.305141 1.555213
v 2.673054 -3.023050 1.555213
v 1.997803 3.960068 -2.105317
v 1.997803 4.934225 -2.105317
v 1.997803 3.960068 -3.079475
v 1.997803 4.934225 -3.079475
v 2.716315 3.960068 -2.105317
v 2.716315 4.934225 -2.105317
v 2.716315 3.960068 -3.079475
v 2.716315 4.934225 -3.079475
v -2.204412 -6.911901 3.245438
v -2.204412 6.911901 3.245438
v -2.204412 -6.911901 -3.395132
v -2.204412 6.911901 -3.395132
v 2.637543 -6.911901 3.245438
v 2.637543 6.911901 3.245438
v 2.637543 -6.911901 -3.395132
v 2.637543 6.911901 -3.395132
v -1.594160 6.670918 -1.969892
v -1.594160 -6.162308 -1.969892
v -1.594160 6.670918 3.022434
v -1.594160 -6.162308 3.022434
v 2.637543 6.670918 3.022434
v 2.637543 6.670918 -1.969892
v 2.637543 -6.162308 3.022434
v 2.637543 -6.162308 -1.969892
v 2.638882 2.736491 -2.421544
v 2.694018 2.736491 -2.421544
v 2.638882 2.670787 -2.394328
v 2.694018 2.670787 -2.394328
v 2.638882 2.643571 -2.328624
v 2.694018 2.643571 -2.328624
v 2.638882 2.670787 -2.262920
v 2.694018 2.670787 -2.262920
v 2.638882 2.736491 -2.235704
v 2.694018 2.736491 -2.235704
v 2.638882 2.802196 -2.262920
v 2.694018 2.802196 -2.262920
v 2.638882 2.829411 -2.328624
v 2.694018 2.829411 -2.328624
v 2.638882 2.802196 -2.394328
v 2.694018 2.802196 -2.394328
v 1.510396 -4.244777 1.417721
v 1.510396 -3.083415 1.417721
v 1.510396 -4.244777 -1.227509
v 1.510396 -3.083415 -1.227509
v 1.268016 -4.305141 1.555213
v 1.268016 -3.023050 1.555213
v 1.268016 -4.305141 -1.365001
v 1.268016 -3.023050 -1.365001
v 2.743161 -4.305141 1.555213
v 2.743161 -3.023050 1.555213
v 2.743161 -4.305141 -1.365001
v 2.743161 -3.023050 -1.365001
v 2.743161 -4.244777 -1.227509
v 2.743161 -3.083415 -1.227509
v 2.743161 -3.083415 1.417721
v 2.743161 -4.244777 1.417721
v 2.065438 1.379421 -2.217279
v 2.065438 1.601651 -2.217279
v 2.065438 1.379421 -2.834398
v 2.065438 1.601651 -2.834398
v 2.783950 1.379421 -2.217279
v 2.783950 1.601651 -2.217279
v 2.783950 1.379421 -2.834398
v 2.783950 1.601651 -2.834398
v 2.065438 1.100865 -2.217279
v 2.065438 1.323095 -2.217279
v 2.065438 1.100865 -2.834398
v 2.065438 1.323095 -2.834398
v 2.783950 1.100865 -2.217279
v 2.783950 1.323095 -2.217279
v 2.783950 1.100865 -2.834398
v 2.783950 1.323095 -2.834398
v 2.065438 0.809984 -2.217279
v 2.065438 1.032214 -2.217279
v 2.065438 0.809984 -2.834398
v 2.065438 1.032214 -2.834398
v 2.783950 0.809984 -2.217279
v 2.783950 1.032214 -2.217279
v 2.783950 0.809984 -2.834398
v 2.783950 1.032214 -2.834398
v 2.673054 6.670918 -3.217930
v 2.673054 -6.162307 -3.217930
v 2.673054 6.670918 -1.969892
v 2.673054 -6.162307 -1.969892
v -1.594160 6.670918 -3.217930
v -1.594160 -6.162307 -3.217930
v -1.594160 6.670918 -1.969892
v -1.594160 -6.162307 -1.969892
v 2.016576 0.778915 -2.139738
v 2.016576 1.644020 -2.139738
v 2.016576 0.778915 -3.089425
v 2.016576 1.644020 -3.089425
v 2.735088 0.778915 -2.139738
v 2.735088 1.644020 -2.139738
v 2.735088 0.778915 -3.089425
v 2.735088 1.644020 -3.089425
vn -0.0000 1.0000 -0.0000
vn -0.0000 -0.0000 1.0000
vn -1.0000 -0.0000 -0.0000
vn -0.0000 -1.0000 -0.0000
vn 1.0000 -0.0000 -0.0000
vn -0.0000 -0.0000 -1.0000
vn -0.0000 -0.3827 -0.9239
vn -0.0000 -0.9239 -0.3827
vn -0.0000 -0.9239 0.3827
vn -0.0000 -0.3827 0.9239
vn -0.0000 0.3827 0.9239
vn -0.0000 0.9239 0.3827
vn -0.0000 0.9239 -0.3827
vn -0.0000 0.3827 -0.9239
vt 0.875000 0.500000
vt 0.625000 0.750000
vt 0.625000 0.500000
vt 0.375000 1.000000
vt 0.375000 0.750000
vt 0.625000 0.000000
vt 0.375000 0.250000
vt 0.375000 0.000000
vt 0.375000 0.500000
vt 0.125000 0.750000
vt 0.125000 0.500000
vt 0.999927 0.989744
vt 0.293925 0.242111
vt 0.878781 0.242111
vt 0.293925 0.143231
vt 0.999927 0.000000
vt 0.878781 0.143231
vt 0.625000 0.250000
vt 0.375000 0.488119
vt 0.625000 0.488119
vt 0.625000 0.761881
vt 0.375000 0.761881
vt 0.363119 0.500000
vt 0.636881 0.750000
vt 0.875000 0.750000
vt 0.200576 0.848780
vt 0.999900 0.999900
vt 0.000100 0.000100
vt 0.999900 0.000100
vt 0.388556 0.741411
vt 0.620642 0.741411
vt 0.388556 0.549128
vt 0.627080 0.750000
vt 0.625000 0.752080
vt 0.375000 0.752080
vt 0.372920 0.500000
vt 0.375000 0.497920
vt 0.625000 0.497920
vt 1.000000 1.000000
vt 1.000000 0.500000
vt 0.875000 1.000000
vt 0.750000 0.500000
vt 0.750000 1.000000
vt 0.625000 1.000000
vt 0.500000 0.500000
vt 0.500000 1.000000
vt 0.250000 0.500000
vt 0.010000 0.250000
vt 0.250000 0.010000
vt 0.490000 0.250000
vt 0.250000 1.000000
vt 0.125000 1.000000
vt 0.000000 0.500000
vt 0.919706 0.080294
vt 0.580294 0.080294
vt 0.580294 0.419706
vt 0.625000 0.480641
vt 0.355641 0.500000
vt 0.386771 0.511771
vt 0.613229 0.738229
vt 0.375000 0.769359
vt 0.625000 0.769359
vt 0.644359 0.500000
vt 0.644359 0.750000
vt 0.935609 0.773543
vt 1.000000 0.999944
vt 0.002473 0.000056
vt 1.000000 0.000056
vt 0.947383 0.830157
vt 0.000000 0.013758
vt 1.000000 0.013758
vt 0.927761 0.817723
vt 0.000000 0.038626
vt 1.000000 0.038626
vt 0.000073 0.989745
vt 0.000073 0.000000
vt 0.363119 0.750000
vt 0.636881 0.500000
vt 0.000100 0.999900
vt 0.620642 0.549128
vt 0.627080 0.500000
vt 0.372920 0.750000
vt 0.419706 0.419706
vt 0.250000 0.490000
vt 0.080294 0.419706
vt 0.080294 0.080294
vt 0.419706 0.080294
vt 0.000000 1.000000
vt 0.750000 0.490000
vt 0.919706 0.419706
vt 0.990000 0.250000
vt 0.750000 0.010000
vt 0.510000 0.250000
vt 0.375000 0.480641
vt 0.355641 0.750000
vt 0.613229 0.511771
vt 0.386771 0.738229
vt 0.002473 0.999944
vt 0.000002 1.000000
vt 0.000000 1.000000
s 0
usemtl banner
f 9/1/1 5/2/1 1/3/1
f 5/2/2 12/4/2 7/5/2
f 11/6/3 10/7/3 12/8/3
f 3/9/4 12/10/4 10/11/4
f 1/12/5 16/13/5 13/14/5
f 15/15/5 3/16/5 14/17/5
f 9/18/6 3/9/6 10/7/6
f 6/7/5 4/6/5 2/8/5
f 8/18/2 14/19/2 13/20/2
f 2/4/6 16/21/6 15/22/6
f 2/10/1 14/23/1 6/11/1
f 8/1/4 16/24/4 4/25/4
f 9/1/1 11/25/1 5/2/1
f 5/2/2 11/44/2 12/4/2
f 11/6/3 9/18/3 10/7/3
f 3/9/4 7/5/4 12/10/4
f 13/14/5 14/17/5 3/16/5
f 1/12/5 5/75/5 7/76/5
f 7/76/5 15/15/5 16/13/5
f 13/14/5 3/16/5 1/12/5
f 1/12/5 7/76/5 16/13/5
f 15/15/5 7/76/5 3/16/5
f 9/18/6 1/3/6 3/9/6
f 6/7/5 8/18/5 4/6/5
f 8/18/2 6/7/2 14/19/2
f 2/4/6 4/44/6 16/21/6
f 2/10/1 15/77/1 14/23/1
f 8/1/4 13/78/4 16/24/4
usemtl 05glass
f 18/6/3 19/7/3 17/8/3
f 20/26/6 23/26/6 19/26/6
f 24/27/5 21/28/5 23/29/5
f 22/26/2 17/26/2 21/26/2
f 23/26/4 17/26/4 19/26/4
f 20/26/1 22/26/1 24/26/1
f 18/6/3 20/18/3 19/7/3
f 20/26/6 24/26/6 23/26/6
f 24/27/5 22/79/5 21/28/5
f 22/26/2 18/26/2 17/26/2
f 23/26/4 21/26/4 17/26/4
f 20/26/1 18/26/1 22/26/1
usemtl border
f 26/6/3 27/7/3 25/8/3
f 28/18/6 31/9/6 27/7/6
f 30/2/5 39/30/5 37/31/5
f 31/9/5 32/3/5 40/32/5
f 30/2/2 25/4/2 29/5/2
f 31/9/4 25/10/4 27/11/4
f 28/1/1 30/2/1 32/3/1
f 33/1/4 37/33/4 35/25/4
f 36/4/6 37/34/6 39/35/6
f 34/7/5 35/6/5 36/8/5
f 36/10/1 40/36/1 34/11/1
f 33/18/2 40/37/2 38/38/2
f 59/7/5 58/6/5 57/8/5
f 59/7/2 70/57/2 60/18/2
f 57/10/1 69/58/1 59/11/1
f 62/6/3 63/7/3 61/8/3
f 64/18/6 67/9/6 63/7/6
f 67/9/5 69/59/5 65/5/5
f 66/2/2 61/4/2 65/5/2
f 67/9/4 61/10/4 63/11/4
f 64/1/1 66/2/1 68/3/1
f 71/60/5 68/3/5 66/2/5
f 72/61/6 58/44/6 71/62/6
f 58/25/4 70/63/4 71/64/4
f 101/1/1 99/2/1 97/3/1
f 99/2/2 104/4/2 100/5/2
f 103/6/3 102/7/3 104/8/3
f 98/9/4 104/10/4 102/11/4
f 97/3/5 100/5/5 98/9/5
f 101/18/6 98/9/6 102/7/6
f 106/6/3 107/7/3 105/8/3
f 108/18/6 111/9/6 107/7/6
f 112/3/5 109/5/5 111/9/5
f 110/2/2 105/4/2 109/5/2
f 111/9/4 105/10/4 107/11/4
f 108/1/1 110/2/1 112/3/1
f 26/6/3 28/18/3 27/7/3
f 28/18/6 32/3/6 31/9/6
f 30/2/5 29/5/5 39/30/5
f 40/32/5 39/30/5 29/5/5
f 32/3/5 30/2/5 37/31/5
f 32/3/5 37/31/5 38/80/5
f 40/32/5 29/5/5 31/9/5
f 32/3/5 38/80/5 40/32/5
f 30/2/2 26/44/2 25/4/2
f 31/9/4 29/5/4 25/10/4
f 28/1/1 26/25/1 30/2/1
f 33/1/4 38/81/4 37/33/4
f 36/4/6 35/44/6 37/34/6
f 34/7/5 33/18/5 35/6/5
f 36/10/1 39/82/1 40/36/1
f 33/18/2 34/7/2 40/37/2
f 59/7/5 60/18/5 58/6/5
f 59/7/2 69/94/2 70/57/2
f 57/10/1 72/95/1 69/58/1
f 62/6/3 64/18/3 63/7/3
f 64/18/6 68/3/6 67/9/6
f 67/9/5 68/3/5 70/96/5
f 69/59/5 72/97/5 65/5/5
f 67/9/5 70/96/5 69/59/5
f 66/2/2 62/44/2 61/4/2
f 67/9/4 65/5/4 61/10/4
f 64/1/1 62/25/1 66/2/1
f 66/2/5 65/5/5 72/97/5
f 71/60/5 70/96/5 68/3/5
f 66/2/5 72/97/5 71/60/5
f 72/61/6 57/4/6 58/44/6
f 58/25/4 60/1/4 70/63/4
f 101/1/1 103/25/1 99/2/1
f 99/2/2 103/44/2 104/4/2
f 103/6/3 101/18/3 102/7/3
f 98/9/4 100/5/4 104/10/4
f 97/3/5 99/2/5 100/5/5
f 101/18/6 97/3/6 98/9/6
f 106/6/3 108/18/3 107/7/3
f 108/18/6 112/3/6 111/9/6
f 112/3/5 110/2/5 109/5/5
f 110/2/2 106/44/2 105/4/2
f 111/9/4 109/5/4 105/10/4
f 108/1/1 106/25/1 110/2/1
usemtl white
f 42/39/7 43/1/7 41/40/7
f 44/41/8 45/42/8 43/1/8
f 46/43/9 47/3/9 45/42/9
f 48/44/10 49/45/10 47/3/10
f 50/46/11 51/9/11 49/45/11
f 52/4/12 53/47/12 51/9/12
f 54/48/5 50/49/5 46/50/5
f 54/51/13 55/11/13 53/47/13
f 56/52/14 41/53/14 55/11/14
f 47/54/3 51/55/3 55/56/3
f 42/39/7 44/41/7 43/1/7
f 44/41/8 46/43/8 45/42/8
f 46/43/9 48/44/9 47/3/9
f 48/44/10 50/46/10 49/45/10
f 50/46/11 52/4/11 51/9/11
f 52/4/12 54/51/12 53/47/12
f 46/50/5 44/83/5 42/84/5
f 42/84/5 56/85/5 54/48/5
f 54/48/5 52/86/5 50/49/5
f 50/49/5 48/87/5 46/50/5
f 46/50/5 42/84/5 54/48/5
f 54/51/13 56/52/13 55/11/13
f 56/52/14 42/88/14 41/53/14
f 55/56/3 41/89/3 43/90/3
f 43/90/3 45/91/3 47/54/3
f 47/54/3 49/92/3 51/55/3
f 51/55/3 53/93/3 55/56/3
f 55/56/3 43/90/3 47/54/3
usemtl cavecola_nostalgy
f 74/6/3 75/7/3 73/8/3
f 76/65/6 79/65/6 75/65/6
f 80/66/5 77/67/5 79/68/5
f 78/2/2 73/4/2 77/5/2
f 79/65/4 73/65/4 75/65/4
f 76/65/1 78/65/1 80/65/1
f 74/6/3 76/18/3 75/7/3
f 76/65/6 80/65/6 79/65/6
f 80/66/5 78/98/5 77/67/5
f 78/2/2 74/44/2 73/4/2
f 79/65/4 77/65/4 73/65/4
f 76/65/1 74/65/1 78/65/1
usemtl cavecola_mm
f 82/6/3 83/7/3 81/8/3
f 84/69/6 87/69/6 83/69/6
f 88/39/5 85/70/5 87/71/5
f 86/69/2 81/69/2 85/69/2
f 87/69/4 81/69/4 83/69/4
f 84/69/1 86/69/1 88/69/1
f 82/6/3 84/18/3 83/7/3
f 84/69/6 88/69/6 87/69/6
f 88/39/5 86/99/5 85/70/5
f 86/69/2 82/69/2 81/69/2
f 87/69/4 85/69/4 81/69/4
f 84/69/1 82/69/1 86/69/1
usemtl cavecola_wg
f 90/6/3 91/7/3 89/8/3
f 92/72/6 95/72/6 91/72/6
f 96/39/5 93/73/5 95/74/5
f 94/72/2 89/72/2 93/72/2
f 95/72/4 89/72/4 91/72/4
f 92/72/1 94/72/1 96/72/1
f 90/6/3 92/18/3 91/7/3
f 92/72/6 96/72/6 95/72/6
f 96/39/5 94/100/5 93/73/5
f 94/72/2 90/72/2 89/72/2
f 95/72/4 93/72/4 89/72/4
f 92/72/1 90/72/1 94/72/1
